PathFileType	3	(X/Y/Z)	D:\minhoCalibration\240510\subject2_KPNP\preferred\preferred15.trc
DataRate	CameraRate	NumFrames	NumMarkers	Units	OrigDataRate	OrigDataStartFrame	OrigNumFrames
200.0	200.0	15	10	mm	200.0	356	186	
Frame#	Time	Left_Ankle_Outer1			Left_Ankle_Inner1			Left_Knee_Outer1			Left_Knee_Inner1			Left_Wrist1			Right_Wrist1			Right_Knee_Inner1			Right_Knee_Outer1			Right_Ankle_Inner1			Right_Ankle_Outer1			
		X1	Y1	Z1	X2	Y2	Z2	X3	Y3	Z3	X4	Y4	Z4	X5	Y5	Z5	X6	Y6	Z6	X7	Y7	Z7	X8	Y8	Z8	X9	Y9	Z9	X10	Y10	Z10	
356	1.77	-618.99146	133.1062	-773.8219	-610.27258	140.62672	-719.14453	-441.5112	541.20856	-842.58582	-440.88626	522.63989	-745.09381	-514.54504	964.604	-883.73981	-538.89215	1181.1345	-610.26208	-406.9855	893.60583	-251.13303	-412.99475	982.31897	-238.27496	-468.14853	747.02588	124.57948	-471.71942	839.59338	163.5769
357	1.775	-618.7616	133.29984	-773.43542	-610.09808	141.1133	-718.41193	-439.63632	541.84338	-842.26221	-440.93396	523.03522	-744.45941	-513.49963	964.70435	-884.23724	-540.28198	1180.8185	-610.79877	-410.77078	886.92151	-253.27829	-416.60068	975.50616	-239.10892	-475.4144	734.66003	119.62126	-479.12546	826.65784	159.94003
358	1.78	-618.53516	133.49936	-773.06598	-610.5188	141.42686	-717.37317	-439.33585	541.36938	-841.36523	-440.88571	523.31329	-743.89899	-512.45679	964.79102	-885.19781	-541.67883	1180.5278	-611.42633	-414.34061	880.37262	-255.85606	-420.79544	968.62671	-240.1109	-482.36255	721.98682	114.18887	-486.42822	813.42987	156.04527
359	1.785	-618.2757	133.68492	-772.63348	-610.30627	141.35463	-717.35382	-438.61929	541.18182	-840.63	-440.20847	523.54968	-743.62225	-511.34198	965.26276	-885.93561	-543.05902	1180.1622	-612.11969	-417.88864	873.98364	-258.61877	-425.61774	961.70422	-241.13362	-488.78546	709.22394	108.25587	-493.49222	799.79901	151.73718
360	1.79	-618.02917	133.76892	-772.2226	-609.84534	140.81406	-718.14868	-437.79309	541.02985	-840.086	-439.88867	523.57861	-743.15405	-510.47321	965.38501	-886.61462	-544.45673	1179.765	-612.81842	-421.3526	867.74744	-261.52176	-430.86652	954.73303	-242.32101	-495.99399	695.4165	102.14079	-500.87256	785.97253	147.15001
361	1.795	-617.95569	134.00529	-772.14948	-610.16254	140.24565	-718.28778	-436.60782	541.03058	-839.87457	-439.61237	523.42383	-742.73706	-509.1933	966.03613	-887.96973	-545.58942	1178.9358	-613.3634	-424.74878	861.47504	-264.5592	-436.52954	947.71747	-243.6156	-504.39911	682.06519	97.600761	-508.17365	771.61328	142.20947
362	1.8	-617.60559	133.82184	-771.7688	-610.76288	141.23906	-716.25323	-436.29907	540.31085	-839.14929	-439.22382	523.21912	-742.362	-508.67575	965.93591	-888.30804	-547.10059	1178.0658	-614.04468	-428.32446	855.27667	-267.60379	-442.28336	940.49487	-245.26686	-508.51447	667.92102	87.333237	-514.82819	756.39746	136.46091
363	1.805	-617.58044	134.01392	-771.93896	-610.83923	141.42555	-715.995	-435.45306	540.13538	-838.62299	-438.93707	522.93005	-741.95172	-507.26926	966.61218	-889.85754	-548.62341	1177.213	-614.64008	-431.88361	848.94153	-270.68216	-448.16623	933.39825	-247.30515	-516.1781	654.09406	83.195984	-522.06946	740.93561	130.33493
364	1.81	-617.37463	133.98943	-771.99219	-610.81708	140.79268	-716.88739	-434.39908	539.78223	-838.5083	-438.69464	522.64941	-741.55695	-506.54532	966.54327	-890.13708	-549.97559	1176.0902	-614.98151	-435.68246	842.43689	-273.70996	-454.41577	926.25012	-248.6781	-520.56836	639.37061	72.891113	-529.59076	725.63281	124.05634
365	1.815	-617.21814	133.94325	-772.15796	-610.47559	140.75801	-717.47455	-434.20694	538.80304	-837.67084	-438.50089	522.34515	-741.19513	-505.13177	967.16425	-890.95276	-551.55884	1174.8823	-615.32837	-439.54495	835.99182	-276.88272	-460.3342	918.93848	-250.94864	-526.96039	624.15631	63.701756	-537.40051	710.1123	118.00793
366	1.82	-616.96301	133.83273	-772.46423	-610.64246	140.67792	-717.67053	-433.20996	538.69971	-837.3396	-438.36414	522.03046	-740.88049	-503.96371	967.31305	-891.71344	-553.24634	1173.6058	-615.58136	-441.5123	829.86658	-280.7991	-466.85486	911.53809	-252.56876	-531.62457	610.4342	55.22084	-544.76044	694.04193	110.43805
367	1.825	-616.78082	133.6687	-772.87469	-611.28192	141.12213	-716.65833	-432.83743	537.86133	-836.91711	-438.10361	521.82861	-740.76453	-502.30957	967.80463	-892.70758	-555.16992	1172.2565	-615.74286	-448.26154	822.43329	-283.04196	-473.09921	904.15167	-254.79523	-537.12097	595.79089	46.048195	-552.41083	677.86127	102.81548
368	1.83	-616.45911	133.26062	-773.06598	-611.05157	139.48701	-719.31116	-431.76471	537.8819	-836.73523	-438.44473	521.55212	-740.47894	-500.75662	968.2251	-893.25159	-557.26813	1170.8767	-615.87378	-450.95007	816.72101	-287.095	-479.36911	896.78046	-257.19135	-543.37646	580.44751	36.843315	-559.82343	661.5968	94.569641
369	1.835	-616.52515	133.21048	-773.81256	-611.01147	139.75586	-719.47705	-431.60858	537.04608	-836.32861	-438.60269	521.30481	-740.35712	-499.03561	968.46588	-893.95575	-559.50891	1169.4133	-615.95221	-455.17154	810.52179	-290.49161	-485.62598	889.43927	-259.74152	-547.84106	566.42712	26.450386	-567.94427	645.53192	86.854019
370	1.84	-616.65167	133.14102	-774.43396	-611.09326	139.6991	-720.25305	-430.86328	537.04987	-836.34381	-438.84363	521.08936	-740.33722	-497.16174	968.81305	-894.37958	-562.04828	1167.8379	-615.961	-459.9664	803.99768	-294.25668	-491.91974	882.14001	-262.32886	-554.63654	551.37665	17.478809	-575.03333	628.80835	77.107681
